<svg width="28" height="28" viewBox="0 0 28 28" fill="none" xmlns="http://www.w3.org/2000/svg">
<path d="M9.625 23.625C10.1082 23.625 10.5 23.2332 10.5 22.75C10.5 22.2668 10.1082 21.875 9.625 21.875C9.14175 21.875 8.75 22.2668 8.75 22.75C8.75 23.2332 9.14175 23.625 9.625 23.625Z" stroke="#282034" stroke-width="1.5" stroke-linecap="round" stroke-linejoin="round"/>
<path d="M21.875 23.625C22.3582 23.625 22.75 23.2332 22.75 22.75C22.75 22.2668 22.3582 21.875 21.875 21.875C21.3918 21.875 21 22.2668 21 22.75C21 23.2332 21.3918 23.625 21.875 23.625Z" stroke="#282034" stroke-width="1.5" stroke-linecap="round" stroke-linejoin="round"/>
<path d="M2.625 4.375H6.125L8.75 19.25H22.75" stroke="#282034" stroke-width="1.5" stroke-linecap="round" stroke-linejoin="round"/>
<path d="M8.75 14.5859H22.3913C22.4924 14.586 22.5905 14.551 22.6688 14.4869C22.7471 14.4228 22.8007 14.3335 22.8205 14.2343L24.3955 6.3593C24.4083 6.2958 24.4067 6.23027 24.391 6.16744C24.3753 6.10461 24.3459 6.04604 24.3048 5.99597C24.2637 5.9459 24.2121 5.90557 24.1535 5.8779C24.095 5.85022 24.031 5.83589 23.9662 5.83594H7" stroke="#282034" stroke-width="1.5" stroke-linecap="round" stroke-linejoin="round"/>
</svg>
