<svg width="97" height="66" viewBox="0 0 97 66" fill="none" xmlns="http://www.w3.org/2000/svg">
<path d="M48.1979 21.2997C48.0812 21.2831 47.9312 21.2831 47.7979 21.2997C44.8646 21.1997 42.5312 18.7997 42.5312 15.8497C42.5312 12.8331 44.9646 10.3831 47.9979 10.3831C51.0146 10.3831 53.4646 12.8331 53.4646 15.8497C53.4479 18.7997 51.1312 21.1997 48.1979 21.2997Z" stroke="#282034" stroke-width="2" stroke-linecap="round" stroke-linejoin="round"/>
<path d="M59.2323 32.2999C56.2656 35.0165 52.3323 36.6665 47.999 36.6665C43.6656 36.6665 39.7323 35.0165 36.7656 32.2999C36.9323 30.7332 37.9323 29.1999 39.7156 27.9999C44.2823 24.9665 51.749 24.9665 56.2823 27.9999C58.0656 29.1999 59.0656 30.7332 59.2323 32.2999Z" stroke="#282034" stroke-width="2" stroke-linecap="round" stroke-linejoin="round"/>
<path d="M47.9987 36.6673C57.2034 36.6673 64.6654 29.2054 64.6654 20.0007C64.6654 10.7959 57.2034 3.33398 47.9987 3.33398C38.794 3.33398 31.332 10.7959 31.332 20.0007C31.332 29.2054 38.794 36.6673 47.9987 36.6673Z" stroke="#282034" stroke-width="2" stroke-linecap="round" stroke-linejoin="round"/>
<path d="M15.2973 49.4802L13.5873 50.0022L13.8933 49.4262V59.8842L13.5873 59.4342L15.2973 59.8842V61.0002H10.4553V59.8842L12.2373 59.4162L11.8593 59.8842V50.7402L12.1833 50.7582L8.63731 57.7062L7.21531 57.7962L3.79531 50.7222H4.11931V59.8842L3.84931 59.4522L5.52331 59.8842V61.0002H0.915313V59.8842L2.64331 59.4342L2.31931 59.8842V49.4262L2.64331 49.9842L0.915313 49.5702V48.4542L5.03731 48.3642L8.31331 55.6002H8.04331L11.4633 48.4542L15.2973 48.3642V49.4802ZM15.7562 65.2302L15.9542 63.6822C16.1342 63.7062 16.2962 63.7242 16.4402 63.7362C16.5962 63.7482 16.7402 63.7542 16.8722 63.7542C17.4242 63.7542 17.8682 63.6402 18.2042 63.4122C18.5522 63.1842 18.8462 62.8302 19.0862 62.3502C19.3382 61.8822 19.5902 61.2822 19.8422 60.5502L19.7522 61.2882L16.3322 52.6482L16.5482 52.8462L15.4682 52.6122V51.4962L19.7702 51.3522V52.4682L18.3842 52.7922L18.5102 52.5942L20.9222 59.6322L20.4182 59.5242L22.6322 52.6302L22.7402 52.8462L21.3902 52.6122V51.4962L25.4942 51.3522V52.4682L24.3242 52.8102L24.6302 52.6122L21.5882 60.9822C21.3482 61.6542 21.0902 62.2542 20.8142 62.7822C20.5502 63.3102 20.2442 63.7662 19.8962 64.1502C19.5602 64.5342 19.1582 64.8282 18.6902 65.0322C18.2222 65.2362 17.6702 65.3382 17.0342 65.3382C16.6622 65.3382 16.2362 65.3022 15.7562 65.2302ZM37.2553 59.8662L36.9313 59.4342L38.5333 59.8662V60.9822L35.5813 61.1262L35.2933 59.3982L35.4373 59.4522C34.9453 60.0402 34.4053 60.4782 33.8173 60.7662C33.2413 61.0542 32.6653 61.1982 32.0893 61.1982C31.3573 61.1982 30.7393 60.9642 30.2353 60.4962C29.7313 60.0162 29.4793 59.3202 29.4793 58.4082C29.4793 57.7122 29.6293 57.1662 29.9293 56.7702C30.2293 56.3742 30.6493 56.0922 31.1893 55.9242C31.7413 55.7442 32.4073 55.6542 33.1873 55.6542H35.2573L35.0953 55.8522V54.4842C35.0953 53.8962 34.9453 53.4762 34.6453 53.2242C34.3453 52.9602 33.9193 52.8282 33.3673 52.8282C33.0913 52.8282 32.7973 52.8582 32.4853 52.9182C32.1853 52.9662 31.8553 53.0502 31.4953 53.1702L31.7473 52.9002L31.5313 54.4302H30.1453L30.0013 51.9102C30.7813 51.6822 31.4953 51.5142 32.1433 51.4062C32.7913 51.2862 33.3913 51.2262 33.9433 51.2262C34.9993 51.2262 35.8153 51.4602 36.3913 51.9282C36.9673 52.3842 37.2553 53.1042 37.2553 54.0882V59.8662ZM31.6573 58.2102C31.6573 58.6902 31.7713 59.0442 31.9993 59.2722C32.2273 59.5002 32.5213 59.6142 32.8813 59.6142C33.2293 59.6142 33.6073 59.5062 34.0153 59.2902C34.4233 59.0742 34.8193 58.7862 35.2033 58.4262L35.0953 58.8582V56.7162L35.2573 56.8962H33.5293C32.8213 56.8962 32.3293 57.0042 32.0533 57.2202C31.7893 57.4362 31.6573 57.7662 31.6573 58.2102ZM43.6933 61.1982C42.8773 61.1982 42.1453 61.0062 41.4973 60.6222C40.8493 60.2382 40.3393 59.6802 39.9673 58.9482C39.5953 58.2162 39.4093 57.3342 39.4093 56.3022C39.4093 55.3782 39.5413 54.5982 39.8053 53.9622C40.0693 53.3142 40.4233 52.7922 40.8673 52.3962C41.3233 51.9882 41.8333 51.6942 42.3973 51.5142C42.9733 51.3222 43.5613 51.2262 44.1613 51.2262C44.7013 51.2262 45.2593 51.2982 45.8353 51.4422C46.4113 51.5742 46.8913 51.7422 47.2753 51.9462L47.2033 54.4482H45.7993L45.5473 52.9002L45.7273 53.0622C45.4993 52.9662 45.2413 52.8942 44.9533 52.8462C44.6773 52.7982 44.4253 52.7742 44.1973 52.7742C43.6453 52.7742 43.1773 52.9182 42.7933 53.2062C42.4213 53.4822 42.1393 53.8722 41.9473 54.3762C41.7553 54.8802 41.6593 55.4802 41.6593 56.1762C41.6593 56.9202 41.7613 57.5442 41.9653 58.0482C42.1813 58.5522 42.4813 58.9362 42.8653 59.2002C43.2493 59.4642 43.6873 59.5962 44.1793 59.5962C44.5753 59.5962 45.0013 59.5122 45.4573 59.3442C45.9133 59.1762 46.3873 58.9302 46.8793 58.6062L47.5993 59.7222C46.9513 60.2262 46.2973 60.5982 45.6373 60.8382C44.9773 61.0782 44.3293 61.1982 43.6933 61.1982ZM52.6581 61.1982C51.8421 61.1982 51.1101 61.0062 50.4621 60.6222C49.8141 60.2382 49.3041 59.6802 48.9321 58.9482C48.5601 58.2162 48.3741 57.3342 48.3741 56.3022C48.3741 55.3782 48.5061 54.5982 48.7701 53.9622C49.0341 53.3142 49.3881 52.7922 49.8321 52.3962C50.2881 51.9882 50.7981 51.6942 51.3621 51.5142C51.9381 51.3222 52.5261 51.2262 53.1261 51.2262C53.6661 51.2262 54.2241 51.2982 54.8001 51.4422C55.3761 51.5742 55.8561 51.7422 56.2401 51.9462L56.1681 54.4482H54.7641L54.5121 52.9002L54.6921 53.0622C54.4641 52.9662 54.2061 52.8942 53.9181 52.8462C53.6421 52.7982 53.3901 52.7742 53.1621 52.7742C52.6101 52.7742 52.1421 52.9182 51.7581 53.2062C51.3861 53.4822 51.1041 53.8722 50.9121 54.3762C50.7201 54.8802 50.6241 55.4802 50.6241 56.1762C50.6241 56.9202 50.7261 57.5442 50.9301 58.0482C51.1461 58.5522 51.4461 58.9362 51.8301 59.2002C52.2141 59.4642 52.6521 59.5962 53.1441 59.5962C53.5401 59.5962 53.9661 59.5122 54.4221 59.3442C54.8781 59.1762 55.3521 58.9302 55.8441 58.6062L56.5641 59.7222C55.9161 60.2262 55.2621 60.5982 54.6021 60.8382C53.9421 61.0782 53.2941 61.1982 52.6581 61.1982ZM62.019 51.2262C63.411 51.2262 64.491 51.6462 65.259 52.4862C66.039 53.3142 66.429 54.4962 66.429 56.0322C66.429 57.1002 66.237 58.0182 65.853 58.7862C65.481 59.5542 64.941 60.1482 64.233 60.5682C63.537 60.9882 62.697 61.1982 61.713 61.1982C60.333 61.1982 59.259 60.7842 58.491 59.9562C57.735 59.1282 57.357 57.9402 57.357 56.3922C57.357 55.3242 57.543 54.4062 57.915 53.6382C58.287 52.8702 58.821 52.2762 59.517 51.8562C60.213 51.4362 61.047 51.2262 62.019 51.2262ZM61.911 52.7742C61.155 52.7742 60.579 53.0682 60.183 53.6562C59.799 54.2442 59.607 55.1202 59.607 56.2842C59.607 57.4482 59.793 58.3002 60.165 58.8402C60.537 59.3802 61.089 59.6502 61.821 59.6502C62.349 59.6502 62.787 59.5182 63.135 59.2542C63.483 58.9782 63.747 58.5822 63.927 58.0662C64.107 57.5382 64.197 56.8962 64.197 56.1402C64.197 55.0122 63.999 54.1722 63.603 53.6202C63.219 53.0562 62.655 52.7742 61.911 52.7742ZM71.3641 61.1982C70.5721 61.1982 69.9061 60.9462 69.3661 60.4422C68.8381 59.9262 68.5741 59.1462 68.5741 58.1022V52.6842L68.7901 53.0082L67.2961 52.5942V51.4782L70.7341 51.3522V57.7422C70.7341 58.3542 70.8721 58.8102 71.1481 59.1102C71.4361 59.3982 71.8141 59.5422 72.2821 59.5422C72.6421 59.5422 73.0381 59.4462 73.4701 59.2542C73.9021 59.0622 74.3281 58.7562 74.7481 58.3362L74.6041 58.7502V52.6302L74.8201 53.0082L73.3261 52.5942V51.4782L76.7641 51.3522V59.8122L76.4761 59.4522L78.0241 59.8662V60.9822L75.0721 61.1082L74.7841 59.3442L75.0721 59.4522C74.4841 60.0402 73.8661 60.4782 73.2181 60.7662C72.5701 61.0542 71.9521 61.1982 71.3641 61.1982ZM78.9588 61.0002V59.8842L80.5068 59.4702L80.2368 59.7942V52.6482L80.5068 53.0082L78.9588 52.5942V51.4782L81.9108 51.3342L82.1988 53.0802L81.9108 52.9722C82.4988 52.3722 83.1168 51.9342 83.7648 51.6582C84.4128 51.3702 85.0308 51.2262 85.6188 51.2262C86.4228 51.2262 87.0888 51.4782 87.6168 51.9822C88.1568 52.4862 88.4208 53.2482 88.4088 54.2682V59.7942L88.1928 59.4702L89.6868 59.8842V61.0002H85.0788V59.8842L86.5188 59.5062L86.2488 59.8482V54.7362C86.2488 54.1002 86.1048 53.6322 85.8168 53.3322C85.5408 53.0322 85.1688 52.8822 84.7008 52.8822C84.3408 52.8822 83.9448 52.9842 83.5128 53.1882C83.0808 53.3802 82.6548 53.6802 82.2348 54.0882L82.3968 53.7462V59.8482L82.1808 59.5062L83.5668 59.8842V61.0002H78.9588ZM93.8745 61.1982C93.1185 61.1982 92.5365 60.9702 92.1285 60.5142C91.7205 60.0462 91.5165 59.3502 91.5165 58.4262V52.5762L91.8225 52.8822H90.0405V51.7122L91.8405 51.3522L91.5165 51.7302V49.3002L93.6945 48.9222V51.7302L93.4425 51.4242H96.2145L96.1785 52.8822H93.4425L93.6945 52.5762V58.1382C93.6945 58.6542 93.7845 59.0262 93.9645 59.2542C94.1445 59.4822 94.4025 59.5962 94.7385 59.5962C94.9425 59.5962 95.1645 59.5602 95.4045 59.4882C95.6445 59.4162 95.9025 59.3262 96.1785 59.2182L96.5925 60.4062C95.6445 60.9342 94.7385 61.1982 93.8745 61.1982Z" fill="#282034"/>
</svg>
